<svg width="29" height="28" viewBox="0 0 29 28" fill="none" xmlns="http://www.w3.org/2000/svg">
<circle cx="14.3333" cy="14" r="14" fill="#00918E"/>
<mask id="path-2-inside-1_216_524" fill="white">
<path fill-rule="evenodd" clip-rule="evenodd" d="M17.6315 18.8006H20.6993C22.0575 18.8006 22.8068 17.2238 21.949 16.1708C21.3334 15.4151 20.9241 14.5128 20.761 13.5518L20.2425 10.4962C19.7959 7.86477 17.5162 5.93933 14.8472 5.93933C12.1781 5.93933 9.89839 7.86477 9.45183 10.4962L8.93328 13.5518C8.7702 14.5127 8.36091 15.4151 7.74532 16.1708C6.88756 17.2238 7.63685 18.8006 8.99499 18.8006H12.0617C12.2567 20.164 13.4293 21.2121 14.8466 21.2121C16.264 21.2121 17.4365 20.164 17.6315 18.8006Z"/>
</mask>
<path d="M17.6315 18.8006V17.8006H16.7644L16.6416 18.659L17.6315 18.8006ZM21.949 16.1708L22.7243 15.5392L21.949 16.1708ZM20.761 13.5518L21.7469 13.3845L21.7469 13.3845L20.761 13.5518ZM20.2425 10.4962L19.2566 10.6635V10.6635L20.2425 10.4962ZM9.45183 10.4962L10.4377 10.6635L9.45183 10.4962ZM8.93328 13.5518L7.94738 13.3845V13.3845L8.93328 13.5518ZM7.74532 16.1708L8.52064 16.8024H8.52064L7.74532 16.1708ZM12.0617 18.8006L13.0517 18.659L12.9289 17.8006H12.0617V18.8006ZM20.6993 17.8006H17.6315V19.8006H20.6993V17.8006ZM21.1737 16.8024C21.4993 17.2021 21.2148 17.8006 20.6993 17.8006V19.8006C22.9001 19.8006 24.1142 17.2455 22.7243 15.5392L21.1737 16.8024ZM19.7751 13.7191C19.9671 14.8504 20.449 15.9127 21.1737 16.8024L22.7243 15.5392C22.2178 14.9175 21.8811 14.1751 21.7469 13.3845L19.7751 13.7191ZM19.2566 10.6635L19.7751 13.7191L21.7469 13.3845L21.2284 10.3289L19.2566 10.6635ZM14.8472 6.93933C17.0285 6.93933 18.8916 8.51293 19.2566 10.6635L21.2284 10.3289C20.7002 7.21661 18.0039 4.93933 14.8472 4.93933V6.93933ZM10.4377 10.6635C10.8027 8.51293 12.6658 6.93933 14.8472 6.93933V4.93933C11.6904 4.93933 8.99409 7.21661 8.46592 10.3289L10.4377 10.6635ZM9.91918 13.7191L10.4377 10.6635L8.46592 10.3289L7.94738 13.3845L9.91918 13.7191ZM8.52064 16.8024C9.24536 15.9127 9.72719 14.8504 9.91918 13.7191L7.94738 13.3845C7.8132 14.1751 7.47647 14.9175 6.96999 15.5392L8.52064 16.8024ZM8.99499 17.8006C8.47947 17.8006 8.19505 17.2021 8.52064 16.8024L6.96999 15.5392C5.58007 17.2455 6.79423 19.8006 8.99499 19.8006V17.8006ZM12.0617 17.8006H8.99499V19.8006H12.0617V17.8006ZM14.8466 20.2121C13.9339 20.2121 13.1772 19.5369 13.0517 18.659L11.0718 18.9422C11.3363 20.7911 12.9246 22.2121 14.8466 22.2121V20.2121ZM16.6416 18.659C16.5161 19.5369 15.7593 20.2121 14.8466 20.2121V22.2121C16.7686 22.2121 18.357 20.7911 18.6215 18.9422L16.6416 18.659Z" fill="white" mask="url(#path-2-inside-1_216_524)"/>
<circle cx="17.7272" cy="7.21215" r="2.12121" fill="#EF2278"/>
</svg>
