<svg width="28" height="28" viewBox="0 0 28 28" fill="none" xmlns="http://www.w3.org/2000/svg">
<rect width="28" height="28" rx="14" fill="#00918E"/>
<mask id="path-2-inside-1_325_58" fill="white">
<path fill-rule="evenodd" clip-rule="evenodd" d="M16.7846 19.2249H19.8524C21.2105 19.2249 21.9598 17.6481 21.1021 16.5951C20.4865 15.8394 20.0772 14.9371 19.9141 13.9761L19.3956 10.9205C18.949 8.28908 16.6693 6.36365 14.0002 6.36365C11.3312 6.36365 9.05147 8.28908 8.6049 10.9205L8.08636 13.9761C7.92327 14.9371 7.51399 15.8394 6.89839 16.5951C6.04063 17.6481 6.78992 19.2249 8.14807 19.2249H11.2148C11.4098 20.5883 12.5824 21.6364 13.9997 21.6364C15.4171 21.6364 16.5896 20.5883 16.7846 19.2249Z"/>
</mask>
<path d="M16.7846 19.2249V18.2249H15.9175L15.7947 19.0833L16.7846 19.2249ZM21.1021 16.5951L21.8774 15.9635L21.1021 16.5951ZM19.9141 13.9761L20.9 13.8088L20.9 13.8088L19.9141 13.9761ZM19.3956 10.9205L18.4097 11.0878V11.0878L19.3956 10.9205ZM8.6049 10.9205L9.59081 11.0878L8.6049 10.9205ZM8.08636 13.9761L7.10045 13.8088V13.8088L8.08636 13.9761ZM6.89839 16.5951L7.67371 17.2267H7.67372L6.89839 16.5951ZM11.2148 19.2249L12.2047 19.0833L12.082 18.2249H11.2148V19.2249ZM19.8524 18.2249H16.7846V20.2249H19.8524V18.2249ZM20.3268 17.2267C20.6523 17.6264 20.3679 18.2249 19.8524 18.2249V20.2249C22.0532 20.2249 23.2673 17.6698 21.8774 15.9635L20.3268 17.2267ZM18.9282 14.1434C19.1202 15.2747 19.602 16.337 20.3268 17.2267L21.8774 15.9635C21.3709 15.3418 21.0342 14.5994 20.9 13.8088L18.9282 14.1434ZM18.4097 11.0878L18.9282 14.1434L20.9 13.8088L20.3815 10.7532L18.4097 11.0878ZM14.0002 7.36365C16.1816 7.36365 18.0447 8.93724 18.4097 11.0878L20.3815 10.7532C19.8533 7.64092 17.157 5.36365 14.0002 5.36365V7.36365ZM9.59081 11.0878C9.95577 8.93724 11.8189 7.36365 14.0002 7.36365V5.36365C10.8435 5.36365 8.14717 7.64092 7.619 10.7532L9.59081 11.0878ZM9.07226 14.1434L9.59081 11.0878L7.619 10.7532L7.10045 13.8088L9.07226 14.1434ZM7.67372 17.2267C8.39843 16.337 8.88027 15.2747 9.07226 14.1434L7.10045 13.8088C6.96628 14.5994 6.62954 15.3418 6.12307 15.9635L7.67372 17.2267ZM8.14807 18.2249C7.63254 18.2249 7.34813 17.6264 7.67371 17.2267L6.12307 15.9635C4.73314 17.6698 5.94731 20.2249 8.14807 20.2249V18.2249ZM11.2148 18.2249H8.14807V20.2249H11.2148V18.2249ZM13.9997 20.6364C13.087 20.6364 12.3303 19.9612 12.2047 19.0833L10.2249 19.3665C10.4893 21.2155 12.0777 22.6364 13.9997 22.6364V20.6364ZM15.7947 19.0833C15.6691 19.9612 14.9124 20.6364 13.9997 20.6364V22.6364C15.9217 22.6364 17.5101 21.2155 17.7746 19.3665L15.7947 19.0833Z" fill="white" mask="url(#path-2-inside-1_325_58)"/>
</svg>
