<svg width="23" height="24" viewBox="0 0 23 24" fill="none" xmlns="http://www.w3.org/2000/svg">
<path d="M11.5 0.5C5.14855 0.5 0 5.64855 0 12C0 13.4628 0.301293 14.9451 0.826843 16.2768L1.725 18.1088C2.29425 19.2921 2.09416 20.4076 1.32941 21.775C0.907357 22.5317 1.43405 23.4436 2.3 23.4643C3.46955 23.4908 5.3406 23.0101 6.8287 22.4581C8.20065 23.0917 9.9682 23.5 11.5 23.5C17.8514 23.5 23 18.3514 23 12C23 5.64855 17.8514 0.5 11.5 0.5ZM6.9 10.85C7.5348 10.85 8.05 11.3652 8.05 12C8.05 12.6348 7.5348 13.15 6.9 13.15C6.2652 13.15 5.75 12.6348 5.75 12C5.75 11.3652 6.2652 10.85 6.9 10.85ZM11.5 10.85C12.1348 10.85 12.65 11.3652 12.65 12C12.65 12.6348 12.1348 13.15 11.5 13.15C10.8652 13.15 10.35 12.6348 10.35 12C10.35 11.3652 10.8652 10.85 11.5 10.85ZM16.1 10.85C16.7348 10.85 17.25 11.3652 17.25 12C17.25 12.6348 16.7348 13.15 16.1 13.15C15.4652 13.15 14.95 12.6348 14.95 12C14.95 11.3652 15.4652 10.85 16.1 10.85Z" fill="#00918E"/>
</svg>
