<svg width="32" height="32" viewBox="0 0 32 32" fill="none" xmlns="http://www.w3.org/2000/svg">
<path fill-rule="evenodd" clip-rule="evenodd" d="M6 5C6 4.44772 6.44772 4 7 4H25C25.5523 4 26 4.44772 26 5V27C26 27.5523 25.5523 28 25 28H7C6.44772 28 6 27.5523 6 27V5ZM8 6V26H24V6H8Z" fill="#222831"/>
<path fill-rule="evenodd" clip-rule="evenodd" d="M10 5C10 4.44772 10.4477 4 11 4H21C21.5523 4 22 4.44772 22 5V9C22 9.55228 21.5523 10 21 10H11C10.4477 10 10 9.55228 10 9V5ZM12 6V8H20V6H12Z" fill="#222831"/>
<path fill-rule="evenodd" clip-rule="evenodd" d="M9 13C9 12.4477 9.48215 12 10.0769 12H21.9231C22.5178 12 23 12.4477 23 13C23 13.5523 22.5178 14 21.9231 14H10.0769C9.48215 14 9 13.5523 9 13Z" fill="#222831"/>
<path fill-rule="evenodd" clip-rule="evenodd" d="M18 20C18 19.4477 18.4477 19 19 19L22 19C22.5523 19 23 19.4477 23 20C23 20.5523 22.5523 21 22 21L19 21C18.4477 21 18 20.5523 18 20Z" fill="#222831"/>
<path fill-rule="evenodd" clip-rule="evenodd" d="M18 17C18 16.4477 18.4477 16 19 16L22 16C22.5523 16 23 16.4477 23 17C23 17.5523 22.5523 18 22 18L19 18C18.4477 18 18 17.5523 18 17Z" fill="#222831"/>
<path fill-rule="evenodd" clip-rule="evenodd" d="M18 23C18 22.4477 18.4477 22 19 22L22 22C22.5523 22 23 22.4477 23 23C23 23.5523 22.5523 24 22 24L19 24C18.4477 24 18 23.5523 18 23Z" fill="#222831"/>
<path fill-rule="evenodd" clip-rule="evenodd" d="M9 16C9 15.4477 9.44772 15 10 15H16C16.5523 15 17 15.4477 17 16V24C17 24.5523 16.5523 25 16 25H10C9.44772 25 9 24.5523 9 24V16ZM11 17V23H15V17H11Z" fill="#6D6D6D"/>
</svg>
