<svg width="32" height="32" viewBox="0 0 32 32" fill="none" xmlns="http://www.w3.org/2000/svg">
<path fill-rule="evenodd" clip-rule="evenodd" d="M9.88873 6.85383C11.6977 5.64514 13.8244 5 16 5C16.5523 5 17 5.44772 17 6V15H26C26.5523 15 27 15.4477 27 16C27 18.1756 26.3549 20.3023 25.1462 22.1113C23.9375 23.9202 22.2195 25.3301 20.2095 26.1627C18.1995 26.9952 15.9878 27.2131 13.854 26.7886C11.7202 26.3642 9.76021 25.3166 8.22183 23.7782C6.68345 22.2398 5.6358 20.2798 5.21137 18.146C4.78693 16.0122 5.00477 13.8005 5.83733 11.7905C6.66989 9.78049 8.07979 8.06253 9.88873 6.85383ZM15 7.05572C13.5738 7.21518 12.2012 7.71409 10.9999 8.51677C9.51983 9.50571 8.36628 10.9113 7.68509 12.5558C7.0039 14.2004 6.82567 16.01 7.17294 17.7558C7.5202 19.5016 8.37737 21.1053 9.63604 22.364C10.8947 23.6226 12.4984 24.4798 14.2442 24.8271C15.99 25.1743 17.7996 24.9961 19.4442 24.3149C21.0887 23.6337 22.4943 22.4802 23.4832 21.0001C24.2859 19.7988 24.7848 18.4262 24.9443 17H16C15.7348 17 15.4804 16.8946 15.2929 16.7071C15.1054 16.5196 15 16.2652 15 16V7.05572Z" fill="#6D6D6D"/>
<path fill-rule="evenodd" clip-rule="evenodd" d="M18.2929 2.29289C18.4804 2.10536 18.7348 2 19 2C20.4445 2 21.8749 2.28452 23.2095 2.83732C24.5441 3.39013 25.7567 4.20038 26.7782 5.22182C27.7996 6.24327 28.6099 7.4559 29.1627 8.79048C29.7155 10.1251 30 11.5555 30 13C30 13.5523 29.5523 14 29 14H19C18.4477 14 18 13.5523 18 13L18 3C18 2.73478 18.1054 2.48043 18.2929 2.29289ZM20 4.05573L20 12H27.9443C27.8505 11.1614 27.6391 10.3385 27.3149 9.55585C26.8626 8.46392 26.1997 7.47177 25.364 6.63604C24.5282 5.80031 23.5361 5.13738 22.4442 4.68508C21.6615 4.3609 20.8386 4.14948 20 4.05573Z" fill="#222831"/>
</svg>
