<svg width="22" height="22" viewBox="0 0 22 22" fill="none" xmlns="http://www.w3.org/2000/svg">
<path d="M17.3157 1V3M4.68408 1V3" stroke="#00918E" stroke-width="2" stroke-linecap="round" stroke-linejoin="round"/>
<path d="M8.89492 16L8.89491 12.3472C8.8949 12.1555 8.75097 12 8.57342 12H7.84229M12.7156 16L14.1414 12.3492C14.2081 12.1785 14.0663 12 13.8641 12H12.0528" stroke="#00918E" stroke-width="2" stroke-linecap="round"/>
<path d="M1 11.2432C1 6.88594 1 4.70728 2.31802 3.35364C3.63604 2 5.75736 2 10 2H12C16.2426 2 18.364 2 19.682 3.35364C21 4.70728 21 6.88594 21 11.2432V11.7568C21 16.1141 21 18.2927 19.682 19.6464C18.364 21 16.2426 21 12 21H10C5.75736 21 3.63604 21 2.31802 19.6464C1 18.2927 1 16.1141 1 11.7568V11.2432Z" stroke="#00918E" stroke-width="2" stroke-linecap="round" stroke-linejoin="round"/>
<path d="M4.68408 7H17.3157" stroke="#00918E" stroke-width="2" stroke-linecap="round" stroke-linejoin="round"/>
</svg>
