<svg width="72" height="72" viewBox="0 0 72 72" fill="none" xmlns="http://www.w3.org/2000/svg">
<path d="M36 3.9375C27.4995 3.94715 19.3498 7.32826 13.3391 13.3391C7.32826 19.3498 3.94715 27.4995 3.9375 36C5.69888 78.5352 66.3076 78.5229 68.0626 35.9997C68.0528 27.4992 64.6717 19.3497 58.6609 13.3389C52.6501 7.32821 44.5005 3.94715 36 3.9375ZM36 64.6875C28.3943 64.6788 21.1025 61.6536 15.7245 56.2755C10.3464 50.8975 7.32117 43.6057 7.3125 36C8.88863 -2.0578 63.1171 -2.04676 64.6876 36.0002C64.6788 43.6059 61.6536 50.8976 56.2755 56.2756C50.8974 61.6536 43.6057 64.6788 36 64.6875Z" fill="#00918E"/>
<path d="M48.3069 24.3068L33.0002 39.6135L25.943 32.5569C25.625 32.2481 25.1983 32.0768 24.755 32.08C24.3117 32.0833 23.8875 32.2608 23.5741 32.5743C23.2606 32.8877 23.0831 33.3119 23.0799 33.7552C23.0767 34.1985 23.248 34.6252 23.5569 34.9432L31.8071 43.1933C32.1248 43.5074 32.5535 43.6836 33.0002 43.6836C33.4469 43.6836 33.8757 43.5074 34.1933 43.1933L50.6931 26.6929C51.0012 26.3748 51.1719 25.9483 51.1684 25.5054C51.1648 25.0625 50.9873 24.6388 50.6741 24.3256C50.361 24.0125 49.9372 23.835 49.4944 23.8315C49.0515 23.8279 48.625 23.9987 48.3069 24.3068Z" fill="#00918E"/>
</svg>
