<svg width="49" height="50" viewBox="0 0 49 50" fill="none" xmlns="http://www.w3.org/2000/svg">
<rect x="1" y="1.22314" width="47" height="47" rx="23.5" stroke="white" stroke-width="2"/>
<g clip-path="url(#clip0_216_1815)">
<path d="M38.25 33.4731C38.25 34.1362 37.9866 34.7721 37.5178 35.2409C37.0489 35.7098 36.413 35.9731 35.75 35.9731H13.25C12.587 35.9731 11.9511 35.7098 11.4822 35.2409C11.0134 34.7721 10.75 34.1362 10.75 33.4731V19.7231C10.75 19.0601 11.0134 18.4242 11.4822 17.9554C11.9511 17.4865 12.587 17.2231 13.25 17.2231H18.25L20.75 13.4731H28.25L30.75 17.2231H35.75C36.413 17.2231 37.0489 17.4865 37.5178 17.9554C37.9866 18.4242 38.25 19.0601 38.25 19.7231V33.4731Z" stroke="white" stroke-width="4" stroke-linecap="round" stroke-linejoin="round"/>
<path d="M24.5 30.9731C27.2614 30.9731 29.5 28.7346 29.5 25.9731C29.5 23.2117 27.2614 20.9731 24.5 20.9731C21.7386 20.9731 19.5 23.2117 19.5 25.9731C19.5 28.7346 21.7386 30.9731 24.5 30.9731Z" stroke="white" stroke-width="4" stroke-linecap="round" stroke-linejoin="round"/>
</g>
<defs>
<clipPath id="clip0_216_1815">
<rect width="30" height="30" fill="white" transform="translate(9.5 9.72314)"/>
</clipPath>
</defs>
</svg>
