<svg width="20" height="21" viewBox="0 0 20 21" fill="none" xmlns="http://www.w3.org/2000/svg">
<g clip-path="url(#clip0_217_278)">
<path d="M7.57484 7.5533C7.77076 6.99636 8.15746 6.52673 8.66647 6.22758C9.17547 5.92844 9.77392 5.81909 10.3558 5.9189C10.9377 6.01871 11.4655 6.32124 11.8457 6.77291C12.226 7.22458 12.4341 7.79624 12.4332 8.38664C12.4332 10.0533 9.93317 10.8866 9.93317 10.8866M9.99984 14.22H10.0082M18.3332 10.0533C18.3332 14.6557 14.6022 18.3866 9.99984 18.3866C5.39746 18.3866 1.6665 14.6557 1.6665 10.0533C1.6665 5.45093 5.39746 1.71997 9.99984 1.71997C14.6022 1.71997 18.3332 5.45093 18.3332 10.0533Z" stroke="#344054" stroke-width="1.5" stroke-linecap="round" stroke-linejoin="round"/>
</g>
<defs>
<clipPath id="clip0_217_278">
<rect width="20" height="20" fill="white" transform="translate(0 0.0532227)"/>
</clipPath>
</defs>
</svg>
