<svg width="20" height="21" viewBox="0 0 20 21" fill="none" xmlns="http://www.w3.org/2000/svg">
<path d="M9.99984 18.8656C8.86095 18.8656 7.78456 18.6469 6.77067 18.2094C5.75678 17.7719 4.87137 17.1747 4.11442 16.4177C3.35748 15.6608 2.76025 14.7754 2.32275 13.7615C1.88525 12.7476 1.6665 11.6712 1.6665 10.5323C1.6665 9.37953 1.88525 8.29967 2.32275 7.29273C2.76025 6.28578 3.35748 5.40384 4.11442 4.64689C4.87137 3.88995 5.75678 3.29272 6.77067 2.85522C7.78456 2.41772 8.86095 2.19897 9.99984 2.19897C11.1526 2.19897 12.2325 2.41772 13.2394 2.85522C14.2464 3.29272 15.1283 3.88995 15.8853 4.64689C16.6422 5.40384 17.2394 6.28578 17.6769 7.29273C18.1144 8.29967 18.3332 9.37953 18.3332 10.5323C18.3332 11.6712 18.1144 12.7476 17.6769 13.7615C17.2394 14.7754 16.6422 15.6608 15.8853 16.4177C15.1283 17.1747 14.2464 17.7719 13.2394 18.2094C12.2325 18.6469 11.1526 18.8656 9.99984 18.8656ZM9.99984 17.1573C10.3609 16.6573 10.6734 16.1365 10.9373 15.5948C11.2012 15.0531 11.4165 14.4768 11.5832 13.8656H8.4165C8.58317 14.4768 8.79845 15.0531 9.06234 15.5948C9.32623 16.1365 9.63873 16.6573 9.99984 17.1573ZM7.83317 16.824C7.58317 16.3656 7.36442 15.8899 7.17692 15.3969C6.98942 14.9038 6.83317 14.3934 6.70817 13.8656H4.24984C4.65262 14.5601 5.15609 15.1643 5.76025 15.6781C6.36442 16.192 7.05539 16.574 7.83317 16.824ZM12.1665 16.824C12.9443 16.574 13.6353 16.192 14.2394 15.6781C14.8436 15.1643 15.3471 14.5601 15.7498 13.8656H13.2915C13.1665 14.3934 13.0103 14.9038 12.8228 15.3969C12.6353 15.8899 12.4165 16.3656 12.1665 16.824ZM3.5415 12.199H6.37484C6.33317 11.9212 6.30192 11.6469 6.28109 11.3761C6.26025 11.1052 6.24984 10.824 6.24984 10.5323C6.24984 10.2406 6.26025 9.95939 6.28109 9.68856C6.30192 9.41773 6.33317 9.14342 6.37484 8.86564H3.5415C3.47206 9.14342 3.41998 9.41773 3.38525 9.68856C3.35053 9.95939 3.33317 10.2406 3.33317 10.5323C3.33317 10.824 3.35053 11.1052 3.38525 11.3761C3.41998 11.6469 3.47206 11.9212 3.5415 12.199ZM8.0415 12.199H11.9582C11.9998 11.9212 12.0311 11.6469 12.0519 11.3761C12.0728 11.1052 12.0832 10.824 12.0832 10.5323C12.0832 10.2406 12.0728 9.95939 12.0519 9.68856C12.0311 9.41773 11.9998 9.14342 11.9582 8.86564H8.0415C7.99984 9.14342 7.96859 9.41773 7.94775 9.68856C7.92692 9.95939 7.9165 10.2406 7.9165 10.5323C7.9165 10.824 7.92692 11.1052 7.94775 11.3761C7.96859 11.6469 7.99984 11.9212 8.0415 12.199ZM13.6248 12.199H16.4582C16.5276 11.9212 16.5797 11.6469 16.6144 11.3761C16.6491 11.1052 16.6665 10.824 16.6665 10.5323C16.6665 10.2406 16.6491 9.95939 16.6144 9.68856C16.5797 9.41773 16.5276 9.14342 16.4582 8.86564H13.6248C13.6665 9.14342 13.6978 9.41773 13.7186 9.68856C13.7394 9.95939 13.7498 10.2406 13.7498 10.5323C13.7498 10.824 13.7394 11.1052 13.7186 11.3761C13.6978 11.6469 13.6665 11.9212 13.6248 12.199ZM13.2915 7.19897H15.7498C15.3471 6.50453 14.8436 5.90036 14.2394 5.38647C13.6353 4.87259 12.9443 4.49064 12.1665 4.24064C12.4165 4.69897 12.6353 5.17467 12.8228 5.66772C13.0103 6.16078 13.1665 6.6712 13.2915 7.19897ZM8.4165 7.19897H11.5832C11.4165 6.58786 11.2012 6.01147 10.9373 5.46981C10.6734 4.92814 10.3609 4.40731 9.99984 3.90731C9.63873 4.40731 9.32623 4.92814 9.06234 5.46981C8.79845 6.01147 8.58317 6.58786 8.4165 7.19897ZM4.24984 7.19897H6.70817C6.83317 6.6712 6.98942 6.16078 7.17692 5.66772C7.36442 5.17467 7.58317 4.69897 7.83317 4.24064C7.05539 4.49064 6.36442 4.87259 5.76025 5.38647C5.15609 5.90036 4.65262 6.50453 4.24984 7.19897Z" fill="#344054"/>
</svg>
