<svg width="139" height="157" viewBox="0 0 139 157" fill="none" xmlns="http://www.w3.org/2000/svg">
<g clip-path="url(#clip0_187_62)">
<path d="M95.9802 29.7239C95.9802 29.7239 150.457 56.3748 125.24 114.929L131.362 147.837L97.4966 141.915C100.922 139.791 57.341 169.459 19.7127 126.103C19.6004 125.935 19.8812 126.271 19.7127 126.103C17.5224 123.812 -1.90949 99.7872 11.12 62.4648L6.40243 57.7716C6.40243 57.7716 -12.8048 99.452 15.276 132.361C15.1636 132.193 15.3883 132.528 15.276 132.361C17.8032 135.601 47.6812 172.868 99.2937 148.899L134.563 155.324C134.563 155.324 139.73 156.609 138.888 149.737L132.429 115.096C132.429 115.096 159.555 56.8776 98.4513 23.5221L95.9802 29.7239Z" fill="#04273A"/>
<path d="M2.35885 25.4776C2.35885 25.4776 -5.11065 45.1445 6.34632 57.8833L11.0639 62.5765C11.0639 62.5765 25.8344 70.2869 41.6158 61.7385C41.6158 61.7385 44.4801 56.4306 38.9201 56.0395C38.9201 56.0395 -1.79711 71.8513 8.70511 27.1538C8.81743 27.0979 7.80652 21.1755 2.35885 25.4776Z" fill="#00918E"/>
<path d="M7.86275 24.9747C7.86275 24.9747 17.9718 4.4139 22.5771 4.63738C22.5771 4.63738 31.0013 -1.06155 40.7173 7.65446C40.7173 7.65446 42.5706 13.3534 46.4458 11.9007C48.1868 11.2303 49.1977 9.44236 48.7484 7.65446C48.6922 7.43098 48.6361 7.26336 48.5799 7.03987C48.0183 5.1961 46.165 4.07866 44.2555 4.24628C43.5815 4.30215 42.9076 4.46977 42.2337 4.805C42.2337 4.805 35.5504 -2.62596 22.184 1.00571C22.184 1.00571 12.0749 4.805 5.16699 24.0249L7.86275 24.9747Z" fill="#00918E"/>
<path d="M41.8966 60.2857C41.8966 60.2857 63.5749 51.3462 66.383 40.3953C66.383 40.3953 69.1349 31.1765 61.6093 22.237C61.6093 22.237 63.0695 14.4149 55.3192 17.2644C55.3192 17.2644 51.5002 23.6338 58.8574 24.0249C58.8574 24.0249 65.3721 33.0761 62.564 39.6131C62.564 39.6131 62.0586 47.8822 41.4473 56.7099L41.8966 60.2857Z" fill="#00918E"/>
<path d="M98.8442 22.5164C98.8442 22.5164 97.8895 16.0352 91.5994 13.8562C91.5994 13.8562 85.5901 12.236 81.2095 16.147C78.8507 18.2701 77.7836 21.3989 78.0644 24.5278C78.1206 25.3658 78.3453 26.1481 78.6822 26.7068C78.6822 26.7068 80.1986 31.7352 84.8038 32.9086C84.8038 32.9086 91.2063 34.6965 96.2047 30.2267L98.8442 22.5164Z" fill="#04273A"/>
<path d="M43.1884 101.463C46.2901 101.463 48.8046 98.9618 48.8046 95.8761C48.8046 92.7904 46.2901 90.2889 43.1884 90.2889C40.0867 90.2889 37.5723 92.7904 37.5723 95.8761C37.5723 98.9618 40.0867 101.463 43.1884 101.463Z" fill="#00918E"/>
<path d="M71.5498 101.296C74.6515 101.296 77.1659 98.7942 77.1659 95.7085C77.1659 92.6228 74.6515 90.1213 71.5498 90.1213C68.448 90.1213 65.9336 92.6228 65.9336 95.7085C65.9336 98.7942 68.448 101.296 71.5498 101.296Z" fill="#00918E"/>
<path d="M99.9677 101.743C103.069 101.743 105.584 99.2413 105.584 96.1555C105.584 93.0698 103.069 90.5684 99.9677 90.5684C96.866 90.5684 94.3516 93.0698 94.3516 96.1555C94.3516 99.2413 96.866 101.743 99.9677 101.743Z" fill="#00918E"/>
</g>
<defs>
<clipPath id="clip0_187_62">
<rect width="139" height="157" fill="white"/>
</clipPath>
</defs>
</svg>
