<svg width="18" height="26" viewBox="0 0 18 26" fill="none" xmlns="http://www.w3.org/2000/svg">
<path d="M8.99997 16.8571C10.3639 16.8571 11.6721 16.3153 12.6365 15.3508C13.601 14.3863 14.1428 13.0782 14.1428 11.7143V5.28568C14.1428 3.92171 13.601 2.6136 12.6365 1.64913C11.6721 0.684658 10.3639 0.142822 8.99997 0.142822C7.636 0.142822 6.3279 0.684658 5.36342 1.64913C4.39895 2.6136 3.85712 3.92171 3.85712 5.28568V11.7143C3.85712 13.0782 4.39895 14.3863 5.36342 15.3508C6.3279 16.3153 7.636 16.8571 8.99997 16.8571Z" fill="#00918E"/>
<path d="M18 11.7143C18 11.3733 17.8645 11.0463 17.6234 10.8052C17.3823 10.564 17.0553 10.4286 16.7143 10.4286C16.3733 10.4286 16.0463 10.564 15.8051 10.8052C15.564 11.0463 15.4286 11.3733 15.4286 11.7143C15.4286 13.4193 14.7513 15.0544 13.5457 16.26C12.3401 17.4656 10.705 18.1429 9 18.1429C7.29504 18.1429 5.6599 17.4656 4.45431 16.26C3.24872 15.0544 2.57143 13.4193 2.57143 11.7143C2.57143 11.3733 2.43597 11.0463 2.19485 10.8052C1.95373 10.564 1.62671 10.4286 1.28571 10.4286C0.944722 10.4286 0.617695 10.564 0.376577 10.8052C0.135459 11.0463 0 11.3733 0 11.7143C0.00253428 13.8767 0.783523 15.9659 2.20009 17.5996C3.61665 19.2334 5.57409 20.3025 7.71429 20.6114V23.2857H5.00143C4.69795 23.2857 4.40689 23.4063 4.1923 23.6209C3.9777 23.8355 3.85714 24.1265 3.85714 24.43V24.7129C3.85714 25.0164 3.9777 25.3074 4.1923 25.522C4.40689 25.7366 4.69795 25.8572 5.00143 25.8572H12.9986C13.3021 25.8572 13.5931 25.7366 13.8077 25.522C14.0223 25.3074 14.1429 25.0164 14.1429 24.7129V24.43C14.1429 24.1265 14.0223 23.8355 13.8077 23.6209C13.5931 23.4063 13.3021 23.2857 12.9986 23.2857H10.2857V20.6114C12.4259 20.3025 14.3833 19.2334 15.7999 17.5996C17.2165 15.9659 17.9975 13.8767 18 11.7143Z" fill="#00918E"/>
</svg>
