<svg width="26" height="26" viewBox="0 0 26 26" fill="none" xmlns="http://www.w3.org/2000/svg">
<path d="M16.7905 3.17383C14.0981 3.17383 11.9155 5.35675 11.9155 8.04883C11.9155 10.7409 14.0981 12.9238 16.7905 12.9238C19.4829 12.9238 21.6655 10.7409 21.6655 8.04883C21.6655 5.35675 19.4829 3.17383 16.7905 3.17383ZM8.66553 4.25716C6.27234 4.25716 4.33219 6.19741 4.33219 8.5905C4.33219 10.9836 6.27234 12.9238 8.66553 12.9238C9.56404 12.9238 10.3842 12.6769 11.1061 12.172C9.25486 9.42036 9.51724 6.78566 10.5262 4.66341C9.94993 4.39041 9.31704 4.25716 8.66553 4.25716ZM5.48324 14.3798C3.49629 15.1999 2.16553 17.2095 2.16553 19.4238V21.5905C2.16553 22.1885 2.65054 22.6738 3.24886 22.6738L7.74773 22.676C7.49423 21.8527 7.56876 20.518 7.58544 19.4379C7.62065 17.1445 8.56911 15.5086 8.94059 15.0775C8.25787 15.0721 7.43854 14.9063 6.8374 14.6507C6.69224 14.5889 6.60795 14.5402 6.32964 14.4134C6.05675 14.2888 5.76035 14.265 5.48324 14.3798ZM13.0666 14.3798C11.0796 15.1999 9.74886 17.2095 9.74886 19.4238V21.5905C9.74886 22.1885 10.2339 22.6738 10.8322 22.6738H22.7489C23.3472 22.6738 23.8322 22.1885 23.8322 21.5905V19.4238C23.8322 17.2615 22.4941 15.3007 20.5145 14.447C20.2359 14.3268 19.9112 14.3235 19.6343 14.447C18.6757 14.8771 17.7419 15.0905 16.7905 15.0905C15.8424 15.0905 14.9053 14.8652 13.913 14.4134C13.6401 14.2888 13.3437 14.265 13.0666 14.3798Z" fill="#6D6D6D"/>
</svg>
