<svg width="27" height="28" viewBox="0 0 27 28" fill="none" xmlns="http://www.w3.org/2000/svg">
<path d="M27 14.0001C27 18.2816 25.0069 22.0976 21.8977 24.5707C19.5928 26.4047 16.6749 27.5 13.5001 27.5C10.3252 27.5 7.40735 26.4047 5.10228 24.5707C1.99323 22.0976 0 18.2816 0 14.0001C0 6.54431 6.04443 0.5 13.5001 0.5C20.9557 0.5 27 6.54431 27 14.0001Z" fill="#EEEEEE"/>
<path d="M13.5 18.3034C16.3977 18.3034 18.7467 15.9543 18.7467 13.0566C18.7467 10.159 16.3977 7.80994 13.5 7.80994C10.6023 7.80994 8.2533 10.159 8.2533 13.0566C8.2533 15.9543 10.6023 18.3034 13.5 18.3034Z" fill="#6D6D6D"/>
<path d="M21.8975 24.5708C19.5925 26.4048 16.6746 27.5001 13.4998 27.5001C10.325 27.5001 7.40712 26.4048 5.10205 24.5708C6.78996 22.0912 9.91906 20.4259 13.4998 20.4259C17.0806 20.4259 20.2099 22.0908 21.8975 24.5708Z" fill="#6D6D6D"/>
</svg>
