<svg width="32" height="32" viewBox="0 0 32 32" fill="none" xmlns="http://www.w3.org/2000/svg">
<path fill-rule="evenodd" clip-rule="evenodd" d="M11 12C7.13401 12 4 15.134 4 19C4 22.866 7.13401 26 11 26C14.866 26 18 22.866 18 19C18 18.8204 17.9933 18.6425 17.98 18.4666C17.8405 18.2034 17.4939 18.0989 17.2254 18.2685C14.9431 19.7097 12.2903 17.0569 13.7315 14.7746C13.928 14.4635 13.7574 14.0516 13.3985 13.9705C12.2873 13.7195 11.6558 12.9004 11.478 12.016C11.3202 12.0054 11.1608 12 11 12ZM2 19C2 14.0294 6.02944 10 11 10C11.562 10 12.1128 10.0516 12.6477 10.1507C12.9162 10.2004 13.1527 10.3578 13.3023 10.5863C13.4519 10.8148 13.5015 11.0946 13.4396 11.3606C13.4051 11.509 13.4285 11.6646 13.4938 11.7814C13.55 11.8818 13.6479 11.9765 13.8391 12.0197C15.5455 12.4051 16.3567 14.3633 15.4226 15.8425C15.1194 16.3226 15.6774 16.8806 16.1575 16.5774C17.5652 15.6885 19.4032 16.3793 19.9129 17.9182C19.9366 17.9894 19.9521 18.0631 19.9592 18.1379C19.9862 18.4219 20 18.7095 20 19C20 23.9706 15.9706 28 11 28C6.02944 28 2 23.9706 2 19Z" fill="#222831"/>
<path fill-rule="evenodd" clip-rule="evenodd" d="M11 14C11.5523 14 12 14.4477 12 15V18.5858L14.7071 21.2929C15.0976 21.6834 15.0976 22.3166 14.7071 22.7071C14.3166 23.0976 13.6834 23.0976 13.2929 22.7071L10.2929 19.7071C10.1054 19.5196 10 19.2652 10 19V15C10 14.4477 10.4477 14 11 14Z" fill="#222831"/>
<path fill-rule="evenodd" clip-rule="evenodd" d="M18.0296 4.39853C18.6243 1.76559 22.3758 1.76559 22.9706 4.39853C23.0516 4.75747 23.4635 4.92808 23.7747 4.73161C26.057 3.29038 28.7097 5.94312 27.2685 8.22544C27.072 8.53657 27.2427 8.94847 27.6016 9.02955C30.2345 9.62429 30.2345 13.3758 27.6016 13.9706C27.2427 14.0516 27.072 14.4635 27.2685 14.7747C28.7097 17.057 26.057 19.7097 23.7747 18.2685C23.4635 18.072 23.0516 18.2427 22.9706 18.6016C22.3758 21.2345 18.6243 21.2345 18.0296 18.6016C17.9485 18.2427 17.5366 18.072 17.2254 18.2685C14.9431 19.7097 12.2904 17.057 13.7316 14.7747C13.9281 14.4635 13.7575 14.0516 13.3985 13.9706C10.7656 13.3758 10.7656 9.62429 13.3985 9.02955C13.7575 8.94847 13.9281 8.53657 13.7316 8.22544C12.2904 5.94312 14.9431 3.29038 17.2254 4.73161C17.5366 4.92808 17.9485 4.75747 18.0296 4.39853ZM21.0197 4.8392C20.8946 4.28537 20.1055 4.28537 19.9804 4.8392C19.5949 6.54561 17.6367 7.35672 16.1576 6.42266C15.6775 6.11951 15.1195 6.6775 15.4227 7.15758C16.3567 8.63675 15.5456 10.5949 13.8392 10.9804C13.2854 11.1055 13.2854 11.8946 13.8392 12.0197C15.5456 12.4052 16.3567 14.3634 15.4227 15.8425C15.1195 16.3226 15.6775 16.8806 16.1576 16.5775C17.6367 15.6434 19.5949 16.4545 19.9804 18.1609C20.1055 18.7148 20.8946 18.7148 21.0197 18.1609C21.4052 16.4545 23.3634 15.6434 24.8425 16.5775C25.3226 16.8806 25.8806 16.3226 25.5775 15.8425C24.6434 14.3634 25.4545 12.4052 27.1609 12.0197C27.7148 11.8946 27.7148 11.1055 27.1609 10.9804C25.4545 10.5949 24.6434 8.63675 25.5775 7.15758C25.8806 6.6775 25.3226 6.11951 24.8425 6.42266C23.3634 7.35672 21.4052 6.54561 21.0197 4.8392Z" fill="#6D6D6D"/>
<path fill-rule="evenodd" clip-rule="evenodd" d="M24.0146 8.14266C24.4882 8.42681 24.6417 9.04107 24.3576 9.51465L21.3576 14.5146C21.2169 14.7491 20.9863 14.9158 20.7195 14.9758C20.4527 15.0358 20.1729 14.9839 19.9454 14.8322L16.9454 12.8322C16.4859 12.5258 16.3617 11.905 16.6681 11.4455C16.9744 10.9859 17.5953 10.8617 18.0548 11.1681L20.1822 12.5864L22.6426 8.48566C22.9268 8.01208 23.541 7.85851 24.0146 8.14266Z" fill="#222831"/>
</svg>
