<svg width="31" height="28" viewBox="0 0 31 28" fill="none" xmlns="http://www.w3.org/2000/svg">
<path d="M25.7631 1V3.3M11.2368 1V3.3" stroke="#00918E" stroke-width="2" stroke-linecap="round" stroke-linejoin="round"/>
<path d="M18.4944 13.6499H18.5053M18.4944 18.2499H18.5053M23.3311 13.6499H23.3419M13.6577 13.6499H13.6686M13.6577 18.2499H13.6686" stroke="#00918E" stroke-width="2" stroke-linecap="round" stroke-linejoin="round"/>
<path d="M8.21045 7.8999H28.7894" stroke="#00918E" stroke-width="2" stroke-linecap="round" stroke-linejoin="round"/>
<path d="M7 12.7796C7 7.76873 7 5.26328 8.51572 3.70659C10.0314 2.1499 12.471 2.1499 17.35 2.1499H19.65C24.529 2.1499 26.9686 2.1499 28.4843 3.70659C30 5.26328 30 7.76873 30 12.7796V13.3702C30 18.3811 30 20.8865 28.4843 22.4432C26.9686 23.9999 24.529 23.9999 19.65 23.9999H17.35C12.471 23.9999 10.0314 23.9999 8.51572 22.4432C7 20.8865 7 18.3811 7 13.3702V12.7796Z" stroke="#00918E" stroke-width="2" stroke-linecap="round" stroke-linejoin="round"/>
<path d="M7.60547 7.8999H29.3949" stroke="#00918E" stroke-width="2" stroke-linecap="round" stroke-linejoin="round"/>
<path d="M12.6668 15.45L13.4446 14.75M2.55566 14.75L3.33344 15.45" stroke="#DFDFDF" stroke-linecap="round" stroke-linejoin="round"/>
<ellipse cx="8" cy="20.6999" rx="7" ry="6.3" fill="#00918E" stroke="#DFDFDF" stroke-linecap="round"/>
<path d="M8 18.25V21.05L9.55556 22.45" stroke="#DFDFDF" stroke-linecap="round" stroke-linejoin="round"/>
<path d="M8 14.05V13" stroke="#DFDFDF" stroke-linecap="round" stroke-linejoin="round"/>
<path d="M6.44434 13H9.55545" stroke="#DFDFDF" stroke-linecap="round" stroke-linejoin="round"/>
</svg>
