<svg width="31" height="28" viewBox="0 0 31 28" fill="none" xmlns="http://www.w3.org/2000/svg">
<path d="M25.2631 1V3.3M10.7368 1V3.3" stroke="#6D6D6D" stroke-width="2" stroke-linecap="round" stroke-linejoin="round"/>
<path d="M17.9944 13.6499H18.0053M17.9944 18.2499H18.0053M22.8311 13.6499H22.8419M13.1577 13.6499H13.1686M13.1577 18.2499H13.1686" stroke="#6D6D6D" stroke-width="2" stroke-linecap="round" stroke-linejoin="round"/>
<path d="M7.71045 7.8999H28.2894" stroke="#6D6D6D" stroke-width="2" stroke-linecap="round" stroke-linejoin="round"/>
<path d="M6.5 12.7796C6.5 7.76873 6.5 5.26328 8.01572 3.70659C9.53144 2.1499 11.971 2.1499 16.85 2.1499H19.15C24.029 2.1499 26.4686 2.1499 27.9843 3.70659C29.5 5.26328 29.5 7.76873 29.5 12.7796V13.3702C29.5 18.3811 29.5 20.8865 27.9843 22.4432C26.4686 23.9999 24.029 23.9999 19.15 23.9999H16.85C11.971 23.9999 9.53144 23.9999 8.01572 22.4432C6.5 20.8865 6.5 18.3811 6.5 13.3702V12.7796Z" stroke="#6D6D6D" stroke-width="2" stroke-linecap="round" stroke-linejoin="round"/>
<path d="M7.10547 7.8999H28.8949" stroke="#6D6D6D" stroke-width="2" stroke-linecap="round" stroke-linejoin="round"/>
<path d="M12.1668 15.45L12.9446 14.75M2.05566 14.75L2.83344 15.45" stroke="#DFDFDF" stroke-linecap="round" stroke-linejoin="round"/>
<ellipse cx="7.5" cy="20.6999" rx="7" ry="6.3" fill="#6D6D6D" stroke="#DFDFDF" stroke-linecap="round"/>
<path d="M7.5 18.25V21.05L9.05556 22.45" stroke="#DFDFDF" stroke-linecap="round" stroke-linejoin="round"/>
<path d="M7.5 14.05V13" stroke="#DFDFDF" stroke-linecap="round" stroke-linejoin="round"/>
<path d="M5.94434 13H9.05545" stroke="#DFDFDF" stroke-linecap="round" stroke-linejoin="round"/>
</svg>
