<svg width="32" height="32" viewBox="0 0 32 32" fill="none" xmlns="http://www.w3.org/2000/svg">
<path fill-rule="evenodd" clip-rule="evenodd" d="M6.03158 20.3647C6.51039 20.0894 7.12167 20.2544 7.39692 20.7332C8.28072 22.2707 9.53952 23.5592 11.0559 24.4787C12.5723 25.3982 14.2969 25.9186 16.0687 25.9915C16.6206 26.0141 17.0495 26.4799 17.0268 27.0317C17.0041 27.5835 16.5384 28.0125 15.9866 27.9898C13.8772 27.9031 11.8242 27.2835 10.0189 26.1889C8.21371 25.0943 6.71514 23.5603 5.66299 21.73C5.38775 21.2512 5.55277 20.6399 6.03158 20.3647Z" fill="#222831"/>
<path fill-rule="evenodd" clip-rule="evenodd" d="M26.9684 10.6353C26.4896 10.9106 25.8783 10.7456 25.6031 10.2668C24.7193 8.72931 23.4605 7.44075 21.9441 6.52128C20.4277 5.60181 18.7031 5.08138 16.9313 5.00854C16.3794 4.98585 15.9505 4.52013 15.9732 3.96831C15.9959 3.41649 16.4616 2.98754 17.0134 3.01023C19.1228 3.09694 21.1758 3.7165 22.9811 4.81111C24.7863 5.90572 26.2849 7.43972 27.337 9.27001C27.6123 9.74882 27.4472 10.3601 26.9684 10.6353Z" fill="#222831"/>
<path fill-rule="evenodd" clip-rule="evenodd" d="M8 4C6.89543 4 6 4.89543 6 6C6 7.10457 6.89543 8 8 8C9.10457 8 10 7.10457 10 6C10 4.89543 9.10457 4 8 4ZM4 6C4 3.79086 5.79086 2 8 2C10.2091 2 12 3.79086 12 6C12 8.20914 10.2091 10 8 10C5.79086 10 4 8.20914 4 6Z" fill="#6D6D6D"/>
<path fill-rule="evenodd" clip-rule="evenodd" d="M24 15C22.8954 15 22 15.8954 22 17C22 18.1046 22.8954 19 24 19C25.1046 19 26 18.1046 26 17C26 15.8954 25.1046 15 24 15ZM20 17C20 14.7909 21.7909 13 24 13C26.2091 13 28 14.7909 28 17C28 19.2091 26.2091 21 24 21C21.7909 21 20 19.2091 20 17Z" fill="#6D6D6D"/>
<path fill-rule="evenodd" clip-rule="evenodd" d="M8 13C5.79086 13 4 14.7909 4 17V18C4 18.5523 3.55228 19 3 19C2.44772 19 2 18.5523 2 18V17C2 13.6863 4.68629 11 8 11C11.3137 11 14 13.6863 14 17V18C14 18.5523 13.5523 19 13 19C12.4477 19 12 18.5523 12 18V17C12 14.7909 10.2091 13 8 13Z" fill="#6D6D6D"/>
<path fill-rule="evenodd" clip-rule="evenodd" d="M24 24C21.7909 24 20 25.7909 20 28V29C20 29.5523 19.5523 30 19 30C18.4477 30 18 29.5523 18 29V28C18 24.6863 20.6863 22 24 22C27.3137 22 30 24.6863 30 28V29C30 29.5523 29.5523 30 29 30C28.4477 30 28 29.5523 28 29V28C28 25.7909 26.2091 24 24 24Z" fill="#6D6D6D"/>
</svg>
